<?xml version="1.0" encoding="utf-8"?>
<!-- Generator: Adobe Illustrator 25.4.1, SVG Export Plug-In . SVG Version: 6.00 Build 0)  -->
<svg version="1.0" id="レイヤー_1" xmlns="http://www.w3.org/2000/svg" xmlns:xlink="http://www.w3.org/1999/xlink" x="0px"
	 y="0px" width="272px" height="60px" viewBox="0 0 272 60" style="enable-background:new 0 0 272 60;" xml:space="preserve">
<style type="text/css">
	.st0{fill:#1F2B61;}
	.st1{fill:none;stroke:#1F2B61;}
	.st2{fill:#3E3A39;}
</style>
<g>
	<g>
		<g>
			<g>
				<path class="st0" d="M40.9,13.5c0,0.3,0,2.2,0,2.4c-0.3,0-4.7,0-4.7,0s0,28.2,0,29.1C35.6,44.3,9.4,18.4,9.4,18.4v23.2
					c0,0,4.5,0,4.8,0c0,0.2,0,2.2,0,2.5c-0.4,0-12.2,0-12.6,0c0-0.3,0-2.2,0-2.5c0.3,0,4.8,0,4.8,0V15.9c0,0-4.4,0-4.8,0
					c0-0.2,0-2.1,0-2.4c0.3,0,6.9,0,7.1,0c0.1,0.1,24.5,24.3,24.5,24.3V15.9c0,0-4.4,0-4.8,0c0-0.2,0-2.1,0-2.4c0.4,0,4.6,0,4.6,0
					S40.7,13.5,40.9,13.5z"/>
			</g>
			<g>
				<path class="st0" d="M51.1,26.6c5.6,0,10.1,4.6,10.1,10.4c0,5.7-4.5,10.3-10.1,10.3c-5.6,0-10.1-4.7-10.1-10.5
					C41,31.2,45.5,26.6,51.1,26.6z M51.1,45.6c4.5,0,8.2-3.9,8.2-8.7c0-4.8-3.7-8.7-8.2-8.7c-4.6,0-8.2,3.9-8.2,8.8
					C42.9,41.8,46.6,45.6,51.1,45.6z"/>
			</g>
			<g>
				<path class="st0" d="M89.7,23.5c0,0.2,0,1.5,0,1.7c-0.2,0-3.1,0-3.1,0v18.2c0,0,2.9,0,3.1,0c0,0.2,0,1.5,0,1.8c-0.2,0-7.8,0-8,0
					c0-0.2,0-1.5,0-1.8c0.2,0,3,0,3,0v-8.8H71.5v8.8c0,0,2.8,0,3,0c0,0.2,0,1.5,0,1.8c-0.2,0-7.8,0-8,0c0-0.2,0-1.5,0-1.8
					c0.2,0,3.1,0,3.1,0V25.3c0,0-2.8,0-3.1,0c0-0.2,0-1.5,0-1.7c0.2,0,7.9,0,8,0c0,0.2,0,1.5,0,1.7c-0.2,0-3,0-3,0v7.7h13.2v-7.7
					c0,0-2.8,0-3,0c0-0.2,0-1.5,0-1.7c0.2,0,7.1,0,7.1,0S89.5,23.5,89.7,23.5z"/>
			</g>
			<g>
				<path class="st0" d="M102.9,26.1c5.1,0,9.2,4.2,9.2,9.4c0,5.2-4.1,9.4-9.2,9.4c-5.1,0-9.2-4.3-9.2-9.5
					C93.7,30.3,97.9,26.1,102.9,26.1z M102.9,43.4c4.1,0,7.5-3.5,7.5-7.9s-3.4-7.9-7.5-7.9c-4.1,0-7.5,3.6-7.5,8
					C95.4,39.9,98.8,43.4,102.9,43.4z"/>
			</g>
			<g>
				<path class="st0" d="M127.2,22.3c6.2,0,11.3,5.2,11.3,11.6c0,6.4-5.1,11.6-11.3,11.6c-6.2,0-11.3-5.2-11.3-11.7
					C116,27.5,121,22.3,127.2,22.3z M127.2,43.6c5.1,0,9.2-4.4,9.2-9.7c0-5.4-4.1-9.7-9.2-9.7c-5.1,0-9.2,4.4-9.2,9.8
					C118,39.3,122.2,43.6,127.2,43.6z"/>
			</g>
			<g>
				<path class="st0" d="M168.3,20.9c0,0.2,0,1.6,0,1.8c-0.2,0-3,0-3,0s0,21,0,21.7c-0.5-0.5-17.3-19.8-17.3-19.8v17.3
					c0,0,2.9,0,3.1,0c0,0.2,0,1.6,0,1.8c-0.2,0-7.9,0-8.1,0c0-0.2,0-1.7,0-1.8c0.2,0,3.1,0,3.1,0V22.7c0,0-2.9,0-3.1,0
					c0-0.2,0-1.6,0-1.8c0.2,0,4.5,0,4.6,0C147.6,21,163.3,39,163.3,39V22.7c0,0-2.9,0-3.1,0c0-0.2,0-1.6,0-1.8c0.2,0,3,0,3,0
					S168.2,20.9,168.3,20.9z"/>
			</g>
			<g>
				<path class="st0" d="M174.9,40.4c1.2,0.1,2,1.2,1.9,2.4c-0.1,1.2-1.1,2.2-2.3,2.1c-1.2-0.1-2.1-1.2-2-2.4
					C172.7,41.3,173.7,40.3,174.9,40.4z M176.5,37.6c-0.3,0-2.4-0.2-2.7-0.2c0-0.3,1.8-22.5,1.8-22.8c0.3,0,2.4,0.2,2.7,0.2
					C178.3,15.1,176.5,37.3,176.5,37.6z"/>
			</g>
			<line class="st0" x1="67.4" y1="23.8" x2="68.9" y2="23.8"/>
		</g>
		<g>
			<g>
				<path class="st1" d="M40.9,13.5c0,0.3,0,2.2,0,2.4c-0.3,0-4.7,0-4.7,0s0,28.2,0,29.1C35.6,44.3,9.4,18.4,9.4,18.4v23.2
					c0,0,4.5,0,4.8,0c0,0.2,0,2.2,0,2.5c-0.4,0-12.2,0-12.6,0c0-0.3,0-2.2,0-2.5c0.3,0,4.8,0,4.8,0V15.9c0,0-4.4,0-4.8,0
					c0-0.2,0-2.1,0-2.4c0.3,0,6.9,0,7.1,0c0.1,0.1,24.5,24.3,24.5,24.3V15.9c0,0-4.4,0-4.8,0c0-0.2,0-2.1,0-2.4c0.4,0,4.6,0,4.6,0
					S40.7,13.5,40.9,13.5z"/>
			</g>
			<g>
				<path class="st1" d="M51.1,26.6c5.6,0,10.1,4.6,10.1,10.4c0,5.7-4.5,10.3-10.1,10.3c-5.6,0-10.1-4.7-10.1-10.5
					C41,31.2,45.5,26.6,51.1,26.6z M51.1,45.6c4.5,0,8.2-3.9,8.2-8.7c0-4.8-3.7-8.7-8.2-8.7c-4.6,0-8.2,3.9-8.2,8.8
					C42.9,41.8,46.6,45.6,51.1,45.6z"/>
			</g>
			<g>
				<path class="st1" d="M89.7,23.5c0,0.2,0,1.5,0,1.7c-0.2,0-3.1,0-3.1,0v18.2c0,0,2.9,0,3.1,0c0,0.2,0,1.5,0,1.8c-0.2,0-7.8,0-8,0
					c0-0.2,0-1.5,0-1.8c0.2,0,3,0,3,0v-8.8H71.5v8.8c0,0,2.8,0,3,0c0,0.2,0,1.5,0,1.8c-0.2,0-7.8,0-8,0c0-0.2,0-1.5,0-1.8
					c0.2,0,3.1,0,3.1,0V25.3c0,0-2.8,0-3.1,0c0-0.2,0-1.5,0-1.7c0.2,0,7.9,0,8,0c0,0.2,0,1.5,0,1.7c-0.2,0-3,0-3,0v7.7h13.2v-7.7
					c0,0-2.8,0-3,0c0-0.2,0-1.5,0-1.7c0.2,0,7.1,0,7.1,0S89.5,23.5,89.7,23.5z"/>
			</g>
			<g>
				<path class="st1" d="M102.9,26.1c5.1,0,9.2,4.2,9.2,9.4c0,5.2-4.1,9.4-9.2,9.4c-5.1,0-9.2-4.3-9.2-9.5
					C93.7,30.3,97.9,26.1,102.9,26.1z M102.9,43.4c4.1,0,7.5-3.5,7.5-7.9s-3.4-7.9-7.5-7.9c-4.1,0-7.5,3.6-7.5,8
					C95.4,39.9,98.8,43.4,102.9,43.4z"/>
			</g>
			<g>
				<path class="st1" d="M127.2,22.3c6.2,0,11.3,5.2,11.3,11.6c0,6.4-5.1,11.6-11.3,11.6c-6.2,0-11.3-5.2-11.3-11.7
					C116,27.5,121,22.3,127.2,22.3z M127.2,43.6c5.1,0,9.2-4.4,9.2-9.7c0-5.4-4.1-9.7-9.2-9.7c-5.1,0-9.2,4.4-9.2,9.8
					C118,39.3,122.2,43.6,127.2,43.6z"/>
			</g>
			<g>
				<path class="st1" d="M168.3,20.9c0,0.2,0,1.6,0,1.8c-0.2,0-3,0-3,0s0,21,0,21.7c-0.5-0.5-17.3-19.8-17.3-19.8v17.3
					c0,0,2.9,0,3.1,0c0,0.2,0,1.6,0,1.8c-0.2,0-7.9,0-8.1,0c0-0.2,0-1.7,0-1.8c0.2,0,3.1,0,3.1,0V22.7c0,0-2.9,0-3.1,0
					c0-0.2,0-1.6,0-1.8c0.2,0,4.5,0,4.6,0C147.6,21,163.3,39,163.3,39V22.7c0,0-2.9,0-3.1,0c0-0.2,0-1.6,0-1.8c0.2,0,3,0,3,0
					S168.2,20.9,168.3,20.9z"/>
			</g>
			<g>
				<path class="st1" d="M174.9,40.4c1.2,0.1,2,1.2,1.9,2.4c-0.1,1.2-1.1,2.2-2.3,2.1c-1.2-0.1-2.1-1.2-2-2.4
					C172.7,41.3,173.7,40.3,174.9,40.4z M176.5,37.6c-0.3,0-2.4-0.2-2.7-0.2c0-0.3,1.8-22.5,1.8-22.8c0.3,0,2.4,0.2,2.7,0.2
					C178.3,15.1,176.5,37.3,176.5,37.6z"/>
			</g>
			<line class="st1" x1="67.4" y1="23.8" x2="68.9" y2="23.8"/>
		</g>
	</g>
	<g>
		<path class="st2" d="M200.5,33.9h10.8c0.6,0,1.4,0,2.1-0.1v2.9c-0.7-0.1-1.5-0.1-2.1-0.1h-10.8c-0.7,0-1.7,0.1-2.3,0.1v-2.9
			C198.9,33.8,199.8,33.9,200.5,33.9z M201.9,24.7h7.8c0.8,0,1.6-0.1,2.1-0.1v2.7c-0.5,0-1.4-0.1-2.1-0.1H202c-0.7,0-1.6,0-2.2,0.1
			v-2.7C200.4,24.7,201.3,24.7,201.9,24.7z"/>
		<path class="st2" d="M229.4,29.2c-0.2,1.1-0.6,4.3-0.9,6.1h1.2c0.5,0,1.4,0,1.8-0.1v2.4c-0.4,0-1.3-0.1-1.8-0.1h-9.9
			c-0.7,0-1.1,0-1.9,0.1v-2.4c0.5,0.1,1.2,0.1,1.9,0.1h6.1c0.3-1.6,0.7-4.3,0.7-5.3h-5.1c-0.6,0-1.3,0.1-1.9,0.1v-2.5
			c0.5,0.1,1.4,0.1,1.9,0.1h4.8c0.4,0,1.2-0.1,1.4-0.2l1.8,0.9C229.5,28.6,229.4,29,229.4,29.2z"/>
		<path class="st2" d="M238.9,28.7H249c0.9,0,1.7-0.1,2.2-0.1v2.9c-0.5,0-1.4-0.1-2.2-0.1h-10.1c-1.1,0-2.3,0-3,0.1v-2.9
			C236.5,28.7,237.9,28.7,238.9,28.7z"/>
		<path class="st2" d="M267.9,25.8c-0.6,1.5-1.7,3.5-2.9,5.2c1.9,1.6,4.1,4,5.2,5.4l-2.1,1.9c-1.2-1.7-3-3.6-4.7-5.3
			c-2,2.1-4.5,4.1-7.1,5.3l-1.9-2c3-1.1,5.9-3.4,7.7-5.4c1.2-1.4,2.4-3.3,2.8-4.6h-6.4c-0.8,0-1.8,0.1-2.2,0.1v-2.7
			c0.5,0.1,1.7,0.1,2.2,0.1h6.6c0.8,0,1.6-0.1,1.9-0.2l1.5,1.1C268.4,24.8,268.1,25.4,267.9,25.8z"/>
	</g>
</g>
<g>
</g>
<g>
</g>
<g>
</g>
<g>
</g>
<g>
</g>
<g>
</g>
</svg>
