<?xml version="1.0" encoding="utf-8"?>
<!-- Generator: Adobe Illustrator 25.4.1, SVG Export Plug-In . SVG Version: 6.00 Build 0)  -->
<svg version="1.0" id="レイヤー_1" xmlns="http://www.w3.org/2000/svg" xmlns:xlink="http://www.w3.org/1999/xlink" x="0px"
	 y="0px" width="150px" height="60px" viewBox="0 0 150 60" style="enable-background:new 0 0 150 60;" xml:space="preserve">
<style type="text/css">
	.st0{fill:#1F2B61;}
	.st1{fill:none;stroke:#1F2B61;}
	.st2{fill:#3E3A39;}
</style>
<g>
	<g>
		<g>
			<g>
				<path class="st0" d="M41.4,13.5c0,0.3,0,2.2,0,2.4c-0.3,0-4.7,0-4.7,0s0,28.2,0,29.1C36.1,44.3,9.9,18.4,9.9,18.4v23.2
					c0,0,4.5,0,4.8,0c0,0.2,0,2.2,0,2.5c-0.4,0-12.2,0-12.6,0c0-0.3,0-2.2,0-2.5c0.3,0,4.8,0,4.8,0V15.9c0,0-4.4,0-4.8,0
					c0-0.2,0-2.1,0-2.4c0.3,0,6.9,0,7.1,0c0.1,0.1,24.5,24.3,24.5,24.3V15.9c0,0-4.4,0-4.8,0c0-0.2,0-2.1,0-2.4c0.4,0,4.6,0,4.6,0
					S41.2,13.5,41.4,13.5z"/>
			</g>
			<g>
				<path class="st0" d="M51.2,41.5c1.3,0.1,2.2,1.3,2.1,2.6c-0.1,1.3-1.2,2.3-2.5,2.2c-1.3-0.1-2.2-1.3-2.1-2.6
					S49.9,41.4,51.2,41.5z M52.9,38.5c-0.3,0-2.6-0.2-2.9-0.2c0-0.4,1.9-24.2,2-24.6c0.3,0,2.6,0.2,2.9,0.2
					C54.8,14.3,52.9,38.1,52.9,38.5z"/>
			</g>
		</g>
		<g>
			<g>
				<path class="st1" d="M41.4,13.5c0,0.3,0,2.2,0,2.4c-0.3,0-4.7,0-4.7,0s0,28.2,0,29.1C36.1,44.3,9.9,18.4,9.9,18.4v23.2
					c0,0,4.5,0,4.8,0c0,0.2,0,2.2,0,2.5c-0.4,0-12.2,0-12.6,0c0-0.3,0-2.2,0-2.5c0.3,0,4.8,0,4.8,0V15.9c0,0-4.4,0-4.8,0
					c0-0.2,0-2.1,0-2.4c0.3,0,6.9,0,7.1,0c0.1,0.1,24.5,24.3,24.5,24.3V15.9c0,0-4.4,0-4.8,0c0-0.2,0-2.1,0-2.4c0.4,0,4.6,0,4.6,0
					S41.2,13.5,41.4,13.5z"/>
			</g>
			<g>
				<path class="st1" d="M51.2,41.5c1.3,0.1,2.2,1.3,2.1,2.6c-0.1,1.3-1.2,2.3-2.5,2.2c-1.3-0.1-2.2-1.3-2.1-2.6
					S49.9,41.4,51.2,41.5z M52.9,38.5c-0.3,0-2.6-0.2-2.9-0.2c0-0.4,1.9-24.2,2-24.6c0.3,0,2.6,0.2,2.9,0.2
					C54.8,14.3,52.9,38.1,52.9,38.5z"/>
			</g>
		</g>
	</g>
	<g>
		<path class="st2" d="M78,33.9h10.8c0.6,0,1.4,0,2.1-0.1v2.9c-0.7-0.1-1.5-0.1-2.1-0.1H78c-0.7,0-1.7,0.1-2.3,0.1v-2.9
			C76.4,33.8,77.3,33.9,78,33.9z M79.4,24.7h7.8c0.8,0,1.6-0.1,2.1-0.1v2.7c-0.5,0-1.4-0.1-2.1-0.1h-7.8c-0.7,0-1.6,0-2.2,0.1v-2.7
			C77.9,24.7,78.8,24.7,79.4,24.7z"/>
		<path class="st2" d="M106.9,29.2c-0.2,1.1-0.6,4.3-0.9,6.1h1.2c0.5,0,1.4,0,1.8-0.1v2.4c-0.4,0-1.3-0.1-1.8-0.1h-9.9
			c-0.7,0-1.1,0-1.9,0.1v-2.4c0.5,0.1,1.2,0.1,1.9,0.1h6.1c0.3-1.6,0.7-4.3,0.7-5.3h-5.1c-0.6,0-1.3,0.1-1.9,0.1v-2.5
			c0.5,0.1,1.4,0.1,1.9,0.1h4.8c0.4,0,1.2-0.1,1.4-0.2l1.8,0.9C107,28.6,106.9,29,106.9,29.2z"/>
		<path class="st2" d="M116.4,28.7h10.1c0.9,0,1.7-0.1,2.2-0.1v2.9c-0.5,0-1.4-0.1-2.2-0.1h-10.1c-1.1,0-2.3,0-3,0.1v-2.9
			C114,28.7,115.4,28.7,116.4,28.7z"/>
		<path class="st2" d="M145.4,25.8c-0.6,1.5-1.7,3.5-2.9,5.2c1.9,1.6,4.1,4,5.2,5.4l-2.1,1.9c-1.2-1.7-3-3.6-4.7-5.3
			c-2,2.1-4.5,4.1-7.1,5.3l-1.9-2c3-1.1,5.9-3.4,7.7-5.4c1.2-1.4,2.4-3.3,2.8-4.6H136c-0.8,0-1.8,0.1-2.2,0.1v-2.7
			c0.5,0.1,1.7,0.1,2.2,0.1h6.6c0.8,0,1.6-0.1,1.9-0.2l1.5,1.1C145.9,24.8,145.6,25.4,145.4,25.8z"/>
	</g>
</g>
<g>
</g>
<g>
</g>
<g>
</g>
<g>
</g>
<g>
</g>
<g>
</g>
</svg>
