<?xml version="1.0" encoding="utf-8"?>
<!-- Generator: Adobe Illustrator 25.4.1, SVG Export Plug-In . SVG Version: 6.00 Build 0)  -->
<svg version="1.0" id="レイヤー_1" xmlns="http://www.w3.org/2000/svg" xmlns:xlink="http://www.w3.org/1999/xlink" x="0px"
	 y="0px" width="160px" height="60px" viewBox="0 0 160 60" style="enable-background:new 0 0 160 60;" xml:space="preserve">
<style type="text/css">
	.st0{fill:#FFFFFF;}
</style>
<g>
	<g>
		<path class="st0" d="M5,28.4c-1,0-1.4-0.3-1.4-1.2V23c0-1,0.3-1.2,1.4-1.2h16.4c1,0,1.4,0.3,1.4,1.2v4.1c0,1-0.3,1.2-1.4,1.2h-4
			v26.2c0,1-0.3,1.2-1.4,1.2h-5.7c-1,0-1.4-0.3-1.4-1.2V28.4H5z"/>
		<path class="st0" d="M45.1,54.5c0,1-0.3,1.2-1.4,1.2H27.6c-1,0-1.4-0.3-1.4-1.2V23c0-1,0.3-1.2,1.4-1.2h15.5c1,0,1.4,0.3,1.4,1.2
			v4.1c0,1-0.3,1.2-1.4,1.2h-8.5v6.9h6.1c1,0,1.4,0.3,1.4,1.2v4.3c0,1-0.3,1.2-1.4,1.2h-6.1v7.2h9.1c1,0,1.4,0.3,1.4,1.2V54.5z"/>
		<path class="st0" d="M65.4,55.8c-1.1,0-1.4-0.2-1.7-1.2L62.7,50h-7l-1.1,4.6c-0.2,1-0.5,1.2-1.6,1.2h-5.5c-1,0-1.3-0.3-1-1.2
			l8.5-31.6c0.3-1,0.6-1.2,1.7-1.2h5.6c1.1,0,1.4,0.2,1.7,1.2l8.6,31.6c0.3,0.9,0,1.2-1,1.2H65.4z M60,38l-0.8-3.6h-0.1L58.4,38
			l-1.2,5.5h3.9L60,38z"/>
		<path class="st0" d="M92.3,48.7c-0.4,0.9-0.8,1.1-1.9,1.1H89c-1.1,0-1.5-0.2-1.8-1.1l-3.4-8.4h-0.1v14.2c0,1-0.3,1.2-1.4,1.2h-5.5
			c-1.1,0-1.4-0.2-1.4-1.2V23c0-1,0.3-1.2,1.4-1.2h5.6c1.1,0,1.5,0.2,1.8,1.1l5.9,14.4l6.1-14.4c0.4-0.9,0.7-1.1,1.8-1.1h5.2
			c1,0,1.4,0.3,1.4,1.2v31.5c0,1-0.3,1.2-1.4,1.2h-5.5c-1,0-1.4-0.3-1.4-1.2V40.3h-0.1L92.3,48.7z"/>
	</g>
	<g>
		<path class="st0" d="M141,53.6v2.4h-15.9v-2.4c-12.3-0.8-15.8-7-15.8-20.4v-7.5c0-14.1,4.2-20.2,18.8-20.2h9.9
			c14.6,0,18.7,6.1,18.7,20.2v7.5C156.7,46.5,153.1,52.7,141,53.6z M140.7,25.2c0-4.4-1.5-5.6-3.6-5.6h-8.3c-2.1,0-3.6,1.2-3.6,5.6
			v8.2c0,3.6,0.6,5,2.4,5.3v-6.6h10.8v6.6c1.6-0.4,2.2-1.8,2.2-5.3V25.2z"/>
	</g>
	<g>
		<path class="st0" d="M7.4,12.6c0,0-0.7-0.5-1.4-0.8l0.8-1.3c0,0,1.2,0.6,1.4,0.7c0,0,0.9-1.2,1-1.8L7.1,9.3c0,0-1,1.2-2.6,1.3
			c0,0,1.8-2.2,2.2-4.1l1.7,0.4c0,0-0.3,1.1-0.5,1.3c0,0,3,0.1,4.2,0.1c-0.6,2.2-2.2,4.2-3.4,4.9c0,0,2.7-0.1,4.2,0.1
			c0,0,0.1,4,0,4.5c-3,0-3,0.1-4.8,0c0,0,0-3,0-3.7c0,0-1.4,1.2-3.7,1.3C4.4,15.4,7,13.5,7.4,12.6z M9.7,16.2c0.4,0,1.6,0,1.6,0
			c0.1-0.4,0-1.5,0-1.5l-1.5,0C9.6,15.1,9.7,16.2,9.7,16.2z"/>
		<path class="st0" d="M17.7,14.1l0.9,0.4c0,0-0.3,0.8-0.6,1.2l-0.9-0.4C17.1,15.3,17.6,14.4,17.7,14.1z M23.7,12
			c0,0-0.1,5.1-2.1,6.1l-0.8-1.8c0,0,0.5,0.2,0.8,0.3c0.4-0.7,0.8-2.5,0.7-3.5c0,0-3.1,0-3.3,0.1c0,0,0-4.8,0-5.8l4.6-0.1l-0.1,1.1
			l-1.6,0l0,0.5h1.2l0,1.2h-1.1l0,0.4l1.1,0l0,1.1l-1.1,0l0,0.6H23.7z M20,14.7l-0.9,0.1l-0.1-1l0.9-0.1L20,14.7z M20.2,15.2l0.2,1
			l-0.8,0.3l-0.2-1.1L20.2,15.2z M20,8.7l0.7,0l0-0.5l-0.7,0C20,8.2,20,8.6,20,8.7z M20.1,10.5l0.7,0l0-0.6l-0.7,0V10.5z M20.8,11.4
			l-0.7,0l0,0.6c0.3,0,0.7,0,0.7,0L20.8,11.4z M20.8,14.9l-0.1-1.2l0.9-0.1l0.2,1.2L20.8,14.9z M31.1,16l-1.3,1.7
			c-2.6-2.6-2.5-4-2.7-4.7l-0.9,0c0.2,2-1.1,4-3.3,4.4c0,0,2.6-2.1,2.3-9.2l4.4,0c0,0,0,4.1-0.2,4.7L28,13
			C28.1,13.9,29.6,15.5,31.1,16z M27.8,9.9h-1.3l0,1.5c0.5,0.1,1.3,0,1.3,0L27.8,9.9z"/>
		<path class="st0" d="M35.2,12.1l-0.5-2c0,0,1.6-0.2,2.8-0.4l-0.8-2L39,7.1c0,0,0.6,2.1,0.6,2.4c0,0,1-0.3,2.8-0.6l0.3,1.9
			c0,0-1.6,0.3-3,0.4l0.4,1.1c0,0,2.2-0.4,2.9-0.5l0.2,1.6c-1.2,0.4-1.5,0.5-2.4,0.8c0,0,0.9,2.9,1.1,3.3l-2.3,0.7
			c-0.3-1.4-0.5-2-0.8-3.2l-2.6,0.5c0,0-0.4-1.1-0.7-1.9c0,0,1.8-0.4,3-0.6L38,11.4C37.2,11.6,36.5,11.9,35.2,12.1z"/>
		<path class="st0" d="M58.6,11.5c-0.4,1.4-0.6,1.9-1.1,3.2c-0.2-1-0.3-1.3-0.5-1.9c0,0-1.8,0.3-2.2,0.3c0,0,0.4,3.8,0.4,4.3
			l-1.7,0.2c0,0-0.2-3.8-0.3-4.3c0,0-1.2,0.3-2.2,0.6l-0.3-1.7c1.3-0.2,1.7-0.2,2.4-0.2l-0.2-2.1l1.7-0.1c0,0-0.1,1.8-0.1,2.1
			C54.5,11.9,58.1,11.5,58.6,11.5z"/>
		<path class="st0" d="M68.3,11.2c0,0-1.9-1.1-2.3-1.4l1.1-1.7c0,0,1.2,0.5,2.2,1L68.3,11.2z M66.2,14.8c3.8-0.3,5.9-1.8,8.1-3.9
			c-0.5,3.3-3,5.7-7.1,6.4L66.2,14.8z"/>
		<path class="st0" d="M79,15.4c1.4-1.6,1.8-3.9,1.6-5.2l2.6,0.5C83,12.8,81.5,15,79,15.4z M90.8,13.2l-2.1,2.3c0,0-2.5-3.5-3.2-4.7
			l1.9-1.1C87.7,10.8,89.2,12.7,90.8,13.2z M91.1,9.8c-0.1,0.7-0.9,1.1-1.6,0.7C88.8,10.2,88.7,9.5,89,9c0.5-0.8,1.2-0.6,1.5-0.5
			C91.1,8.9,91.2,9.4,91.1,9.8z M90.2,9.2c-0.2-0.1-0.4-0.1-0.6,0.2c-0.1,0.2,0,0.6,0.2,0.6c0.3,0.1,0.5-0.1,0.6-0.4
			C90.4,9.5,90.4,9.3,90.2,9.2z"/>
		<path class="st0" d="M100.7,9.8c-4,0.3-4,0.3-4.7,0.3c0,0,0-1.4-0.1-2c0,0,7.1-0.1,7.5-0.2c0,0-0.2,2.9-1.9,5.1
			c0,0,2.2,2.5,3.6,2.4l-1.4,2.1c0,0-1.8-1.4-3.3-3.1c-0.5,0.8-2.7,2.1-5,2.4C98.4,14.4,100.3,11.7,100.7,9.8z"/>
	</g>
</g>
<g>
</g>
<g>
</g>
<g>
</g>
<g>
</g>
<g>
</g>
<g>
</g>
</svg>
